<svg xmlns="http://www.w3.org/2000/svg" xmlns:ns1="http://sozi.baierouge.fr" xmlns:svg="http://www.w3.org/2000/svg" xmlns:xlink="http://www.w3.org/1999/xlink" id="svg5757" version="1.1" viewBox="0 0 99.015 122.5"><g id="layer1" transform="translate(-293.35 -382.53)"><path id="path352" d="m341.72 433.79c35 0 45 10 48.325 30.107 3.3252 20.107 1.6748 39.893-48.325 39.893s-50-20-45-40 10-30 45-30" style="fill-rule:evenodd;stroke:#1e8523;stroke-miterlimit:10;stroke-width:2.5;fill:#2e993a"/><path id="path354" d="m331.72 433.79h25l-15 55z" style="fill-rule:evenodd;stroke:#1e8523;stroke-miterlimit:10;stroke-width:2.5;fill:#fff"/><path id="path356" d="m326.72 428.79 10 10-5 5z" style="fill-rule:evenodd;stroke:#1e8523;stroke-miterlimit:10;stroke-width:2.5;fill:#2e993a"/><path id="path358" d="m351.72 438.79 10-10-5 15z" style="fill-rule:evenodd;stroke:#1e8523;stroke-miterlimit:10;stroke-width:2.5;fill:#2e993a"/><path id="path360" d="m316.72 463.79c-5.3369 9.0674-7.9443 19.482-7.5 30" style="stroke:#1e8523;stroke-miterlimit:10;stroke-width:1.25;fill:none"/><path id="path362" d="m374.22 493.79c0.94238-10.264-0.78125-20.596-5-30" style="stroke:#1e8523;stroke-miterlimit:10;stroke-width:1.25;fill:none"/><path id="path364" d="m371.72 411.29c0 15.186-12.31 27.5-27.5 27.5-15.186 0-27.5-12.314-27.5-27.5 0-15.19 12.314-27.5 27.5-27.5 15.19 0 27.5 12.31 27.5 27.5" style="fill-rule:evenodd;stroke:#ffb068;stroke-miterlimit:10;stroke-width:2.5;fill:#ffd9b5"/></g><metadata/></svg>