<svg xmlns="http://www.w3.org/2000/svg" xmlns:ns1="http://sozi.baierouge.fr" xmlns:svg="http://www.w3.org/2000/svg" xmlns:xlink="http://www.w3.org/1999/xlink" id="svg5711" version="1.1" viewBox="0 0 99.013 122.5"><g id="layer1" transform="translate(-719.06 -548.25)"><path id="path366" d="m767.44 599.51c35 0 45 10 48.325 30.107 3.3203 20.107 1.6748 39.893-48.325 39.893s-50-20-45-40 10-30 45-30" style="fill-rule:evenodd;stroke:#851e1e;stroke-miterlimit:10;stroke-width:2.5;fill:#da0e0e"/><path id="path368" d="m757.44 599.51h25l-15 55z" style="fill-rule:evenodd;stroke:#851e1e;stroke-miterlimit:10;stroke-width:2.5;fill:#fff"/><path id="path370" d="m752.44 594.51 10 10-5 5z" style="fill-rule:evenodd;stroke:#851e1e;stroke-miterlimit:10;stroke-width:2.5;fill:#ff2f2f"/><path id="path372" d="m777.44 604.51 10-10-5 15z" style="fill-rule:evenodd;stroke:#851e1e;stroke-miterlimit:10;stroke-width:2.5;fill:#ff2f2f"/><path id="path374" d="m742.44 629.51c-5.3418 9.0674-7.9443 19.487-7.5 30" style="stroke:#851e1e;stroke-miterlimit:10;stroke-width:1.25;fill:none"/><path id="path376" d="m799.94 659.51c0.9375-10.264-0.786-20.596-5-30" style="stroke:#851e1e;stroke-miterlimit:10;stroke-width:1.25;fill:none"/><path id="path378" d="m797.44 577.01c0 15.186-12.314 27.5-27.5 27.5-15.19 0-27.5-12.314-27.5-27.5 0-15.19 12.31-27.5 27.5-27.5 15.186 0 27.5 12.31 27.5 27.5" style="fill-rule:evenodd;stroke:#ffb068;stroke-miterlimit:10;stroke-width:2.5;fill:#ffd9b5"/></g><metadata/></svg>